#File written by RizomUV 2022.1.57.gfabcfb8. Compilation :Sep 28 2022,23:52:22
mtllib Trottoir_Lp.mtl
#begin vertices
v -778.6866 38.6217 1865.901
v -572.2026 38.6217 1865.901
v -572.2026 38.62192 505.9526
v -778.6866 38.62192 506.9526
v -571.2026 -38.62231 1865.901
v -571.2026 -38.62209 507.9526
v -571.2026 37.62192 507.9526
v -571.2026 37.6217 1865.901
v -571.2026 -38.62206 316.5874
v -778.6866 -38.62206 316.5874
v -778.6866 37.62195 316.5874
v -571.2026 37.62195 316.5874
v -779.6866 -38.62206 317.5874
v -779.6866 -38.62209 506.9526
v -779.6866 37.62192 506.9526
v -779.6866 37.62195 317.5874
v -571.2026 38.62195 317.5874
v -778.6866 38.62195 317.5874
v -779.6866 -38.62231 1865.901
v -779.6866 37.6217 1865.901
v 779.6865 37.62195 316.5874
v 779.6865 -38.62206 316.5874
v 779.6865 38.62192 505.9526
v 779.6865 38.62195 317.5874
v -570.2026 37.62192 506.9526
v -570.2026 -38.62209 506.9526
v 779.6865 -38.62209 506.9526
v 779.6865 37.62192 506.9526
v -778.6866 38.62231 -1865.901
v -778.6866 38.62209 -506.9525
v -572.2026 38.62209 -505.9525
v -572.2026 38.62231 -1865.901
v -571.2026 -38.6217 -1865.901
v -571.2026 37.62231 -1865.901
v -571.2026 37.62209 -507.9525
v -571.2026 -38.62192 -507.9525
v -571.2026 -38.62195 -316.5874
v -571.2026 37.62206 -316.5874
v -778.6866 37.62206 -316.5874
v -778.6866 -38.62195 -316.5874
v -779.6866 -38.62195 -317.5874
v -779.6866 37.62206 -317.5874
v -779.6866 37.62209 -506.9525
v -779.6866 -38.62192 -506.9525
v -778.6866 38.62206 -317.5874
v -571.2026 38.62206 -317.5874
v -779.6866 37.62231 -1865.901
v -779.6866 -38.6217 -1865.901
v 779.6865 -38.62195 -316.5874
v 779.6865 37.62206 -316.5874
v 779.6865 38.62206 -317.5874
v 779.6865 38.62209 -505.9525
v -570.2026 37.62209 -506.9525
v 779.6865 37.62209 -506.9525
v 779.6865 -38.62192 -506.9525
v -570.2026 -38.62192 -506.9525
v -570.9526 37.62192 507.2026
v -571.2026 38.39032 506.9526
v -571.4526 38.37192 507.4526
v -779.4366 37.62195 316.8374
v -779.3116 38.24695 316.9624
v -778.6866 38.37195 316.8374
v -779.4366 38.37195 317.5874
v -570.7026 38.37192 506.7026
v -571.4526 38.37209 -507.4525
v -571.2026 38.39048 -506.9526
v -570.9526 37.62209 -507.2025
v -778.6866 38.37206 -316.8374
v -779.3116 38.24706 -316.9625
v -779.4366 37.62206 -316.8374
v -779.4366 38.37206 -317.5874
v -570.7026 38.37209 -506.7025
v -571.4526 38.3717 1865.901
v -779.4366 38.37192 506.9526
v -779.4366 38.3717 1865.901
v -570.9526 -38.62209 507.2026
v -779.4366 -38.62206 316.8374
v -571.2026 38.37195 316.8374
v 779.6865 38.37195 316.8374
v 779.6865 38.37192 506.7026
v -779.4366 38.37231 -1865.901
v -779.4366 38.37209 -506.9525
v -571.4526 38.37231 -1865.901
v -570.9526 -38.62192 -507.2025
v -571.2026 38.37206 -316.8374
v -779.4366 -38.62195 -316.8374
v 779.6865 38.37206 -316.8374
v 779.6865 38.37209 -506.7025
#end vertices

#begin 130 textures vertices 
vt 0.5280761 0.003906914 0
vt 0.6531705 0.003908654 0
vt 0.653159 0.8278074 0
vt 0.5280646 0.8271998 0
vt 0.8367179 0.8272251 0
vt 0.8367342 0.00476226 0
vt 0.8829129 0.004535827 0
vt 0.8829211 0.8274427 0
vt 0.7121485 0.8223848 0
vt 0.711388 0.9482404 0
vt 0.6651606 0.9478473 0
vt 0.665963 0.8223047 0
vt 0.2560311 0.9956411 0
vt 0.4809157 0.8271992 0
vt 0.140762 0.9496195 0
vt 0.255574 0.949595 0
vt 0.2560763 0.8234324 0
vt 0.2555578 0.9486439 0
vt 0.4809272 0.00390625 0
vt 0.5271182 0.0039069 0
vt 0.6669927 0.003906821 0
vt 0.7131839 0.003960966 0
vt 0.1505887 0.003911895 0
vt 0.2646792 0.00525012 0
vt 0.8919439 0.004535847 0
vt 0.9381226 0.004762433 0
vt 0.9381389 0.8223428 0
vt 0.8919356 0.8225606 0
vt 0.3992115 0.005264926 0
vt 0.4229363 0.828216 0
vt 0.1306807 0.8230309 0
vt 0.274169 0.008869757 0
vt 0.8286613 0.8272251 0
vt 0.782458 0.827443 0
vt 0.7824662 0.004535797 0
vt 0.8286449 0.004762403 0
vt 0.7707954 0.1307198 0
vt 0.7246098 0.1307996 0
vt 0.7238093 0.005256896 0
vt 0.7700369 0.004864219 0
vt 0.7700208 0.00390625 0
vt 0.0176245 0.9500465 0
vt 0.1324352 0.9495684 0
vt 0.1322228 0.9959024 0
vt 0.01763653 0.9490953 0
vt 0.01656939 0.8238882 0
vt 0.400169 0.005237323 0
vt 0.4463408 0.00390625 0
vt 0.7718324 0.9491432 0
vt 0.7256411 0.9491977 0
vt 0.004385144 0.00574944 0
vt 0.1184689 0.003913981 0
vt 0.9466826 0.821933 0
vt 0.9466744 0.003908471 0
vt 0.9928777 0.004126062 0
vt 0.9928613 0.8217066 0
vt 0.8828982 0.004056851 0
vt 0.8833639 0.00390625 0
vt 0.8833919 0.004238803 0
vt 0.6651488 0.9483259 0
vt 0.6647527 0.9482463 0
vt 0.6646817 0.9478492 0
vt 0.2555585 0.9491195 0
vt 0.8914649 0.004238807 0
vt 0.7819872 0.004238757 0
vt 0.7820152 0.00390625 0
vt 0.7824809 0.004056771 0
vt 0.7233304 0.005254951 0
vt 0.7234015 0.004857827 0
vt 0.7237975 0.004778327 0
vt 0.01763795 0.9495709 0
vt 0.9462037 0.82223 0
vt 0.8834 0.827445 0
vt 0.5275857 0.8271998 0
vt 0.5275971 0.003906907 0
vt 0.9381318 0.004283688 0
vt 0.71138 0.9487194 0
vt 0.665484 0.822304 0
vt 0.6665137 0.00390625 0
vt 0.1501098 0.00390625 0
vt 0.3996903 0.005251124 0
vt 0.423415 0.8282022 0
vt 0.2736903 0.008883559 0
vt 0.8286542 0.004283658 0
vt 0.7241309 0.1308003 0
vt 0.7700288 0.004385176 0
vt 0.00390625 0.005757054 0
vt 0.9461954 0.00390625 0
vt 0.8914566 0.8225628 0
vt 0.6651408 0.9488047 0
vt 0.711372 0.9491983 0
vt 0.8919586 0.004056821 0
vt 0.01736776 0.9960938 0
vt 0.8914929 0.00390625 0
vt 0.1413436 0.822466 0
vt 0.7237895 0.004299483 0
vt 0.1410411 0.8226189 0
vt 0.2560658 0.9494654 0
vt 0.2559382 0.9490822 0
vt 0.2560364 0.9486605 0
vt 0.1414927 0.8221618 0
vt 0.2974063 0.8315318 0
vt 0.2972694 0.8318417 0
vt 0.9462317 0.8225626 0
vt 0.9466974 0.822412 0
vt 0.01715801 0.949114 0
vt 0.01725813 0.9495353 0
vt 0.01713217 0.949919 0
vt 0.2969735 0.832007 0
vt 0.6536494 0.003908661 0
vt 0.8367249 0.004283464 0
vt 0.2565552 0.8234388 0
vt 0.2651581 0.005255627 0
vt 0.7819791 0.8274452 0
vt 0.9928706 0.8221854 0
vt 0.0160905 0.8238968 0
vt 0.7251622 0.9491983 0
vt 0.1189478 0.00390625 0
vt 0.1324399 0.9486043 0
vt 0.1324376 0.9490864 0
vt 0.4238938 0.8281884 0
vt 0.4700656 0.8268573 0
vt 0.1407532 0.9486553 0
vt 0.1407576 0.9491374 0
vt 0.5271067 0.8271998 0
vt 0.1411765 0.9959516 0
vt 0.131146 0.8221143 0
vt 0.2979112 0.8324264 0
vt 0.653638 0.8268987 0
vt 0.141962 0.8230764 0
#end 130 textures vertices 

#begin 60 normals 
vn -0.1602 0.9871 0
vn 0.1602 0.9871 0
vn 0.0357 0.9987 0.0357
vn 1 0 0
vn 0.9871 0 0.1602
vn 0.9722 0.1939 0.1311
vn 0.9871 0.1602 0
vn 0 0 -1
vn -0.1602 0 -0.9871
vn -0.1559 0.1559 -0.9754
vn 0 0.1602 -0.9871
vn -0.9871 0 -0.1602
vn -1 0 0
vn -0.9871 0.1602 0
vn -0.9754 0.1559 -0.1559
vn 0 0.9871 -0.1602
vn -0.1559 0.9754 -0.1559
vn 0 0.9871 0.1602
vn 0.1311 0.1939 0.9722
vn 0.1602 0 0.9871
vn 0 0 1
vn 0 0.1602 0.9871
vn 0.0357 0.9987 -0.0357
vn 0.9722 0.1939 -0.1311
vn 0.9871 0 -0.1602
vn -0.1559 0.1559 0.9754
vn -0.1602 0 0.9871
vn -0.9871 0 0.1602
vn -0.9754 0.1559 0.1559
vn -0.1559 0.9754 0.1559
vn 0.1311 0.1939 -0.9722
vn 0.1602 0 -0.9871
vn 0.6885 0.2279 0.6885
vn 0.6026 -0.5231 0.6026
vn 0.5742 0.8053 0.1477
vn -0.7009 0.1323 -0.7009
vn -0.5773 0.5774 -0.5773
vn -0.1323 0.7009 -0.7009
vn -0.7009 0.7009 -0.1323
vn -0.5774 0.5773 -0.5774
vn -0.5773 0.5774 -0.5774
vn 0.1477 0.8053 0.5742
vn 0.5741 0.8053 -0.1477
vn 0.6026 -0.5232 -0.6026
vn 0.6885 0.2279 -0.6885
vn -0.1324 0.7009 0.7009
vn -0.5774 0.5774 0.5772
vn -0.7009 0.1324 0.7009
vn -0.7009 0.7009 0.1324
vn 0.1477 0.8054 -0.5741
vn 0.7071 0.7071 -0
vn -0.7071 0.7071 -0
vn 0.7071 -0 0.7071
vn -0.7071 0 -0.7071
vn -0 0.7071 -0.7071
vn -0 0.7071 0.7071
vn 0.7071 0 -0.7071
vn -0.7071 0.0002 0.7071
vn -0.7071 0 0.7071
vn 0.6026 -0.5232 0.6026
#end 60 normals 

#begin 62 faces
o Trottoir_Lp
usemtl wire_070070080
s 1
f 1/1/1 2/2/2 3/3/3 4/4/1 
f 5/5/4 6/6/5 7/7/6 8/8/7 
f 9/9/8 10/10/9 11/11/10 12/12/11 
f 13/13/12 14/126/13 15/15/14 16/16/15 
f 3/130/3 17/17/16 18/18/17 4/123/1 
f 14/14/13 19/19/13 20/20/14 15/125/14 
f 9/9/8 12/12/11 21/21/11 22/22/8 
f 17/17/16 3/130/3 23/23/18 24/24/16 
f 25/25/19 26/26/20 27/27/21 28/28/22 
f 29/29/1 30/30/1 31/128/23 32/32/2 
f 33/33/4 34/34/7 35/35/24 36/36/25 
f 37/37/21 38/38/22 39/39/26 40/40/27 
f 41/93/28 42/42/29 43/43/14 44/44/13 
f 31/31/23 30/119/1 45/45/30 46/46/18 
f 44/122/13 43/121/14 47/47/14 48/48/13 
f 37/37/21 49/49/21 50/50/22 38/38/22 
f 46/46/18 51/51/18 52/52/16 31/31/23 
f 53/53/31 54/54/11 55/55/8 56/56/32 
f 7/7/6 57/57/33 58/58/34 59/59/35 
f 11/11/10 60/60/36 61/61/37 62/62/38 
f 16/16/15 63/63/39 61/99/40 60/98/36 
f 18/18/17 62/100/38 61/99/41 63/63/39 
f 25/25/19 64/64/42 58/94/34 57/92/33 
f 35/35/24 65/65/43 66/66/44 67/67/45 
f 39/39/26 68/68/46 69/69/47 70/70/48 
f 42/42/29 70/108/48 69/107/47 71/71/49 
f 45/45/30 71/71/49 69/107/47 68/106/46 
f 53/53/31 67/105/45 66/104/44 72/72/50 
f 3/3/3 2/2/2 73/110/51 59/129/35 
f 1/1/1 4/4/1 74/74/52 75/75/52 
f 7/7/6 6/6/5 76/111/53 57/57/33 
f 8/8/7 7/7/6 59/59/35 73/73/51 
f 11/11/10 10/10/9 77/77/54 60/60/36 
f 12/12/11 11/11/10 62/62/38 78/78/55 
f 16/16/15 15/15/14 74/124/52 63/63/39 
f 13/91/12 16/90/15 60/60/36 77/77/54 
f 18/18/17 17/17/16 78/112/55 62/100/38 
f 4/123/1 18/18/17 63/63/39 74/124/52 
f 15/125/14 20/20/14 75/75/52 74/74/52 
f 21/21/11 12/12/11 78/78/55 79/79/55 
f 23/23/18 3/130/3 64/101/42 80/80/56 
f 17/17/16 24/24/16 79/113/55 78/112/55 
f 26/26/20 25/25/19 57/92/33 76/76/53 
f 25/25/19 28/28/22 80/89/56 64/64/42 
f 30/30/1 29/29/1 81/81/52 82/82/52 
f 32/32/2 31/128/23 65/102/43 83/83/51 
f 35/35/24 34/34/7 83/114/51 65/65/43 
f 36/36/25 35/35/24 67/67/45 84/84/57 
f 39/39/26 38/38/22 85/85/56 68/68/46 
f 40/40/27 39/39/26 70/70/48 86/86/58 
f 42/96/29 41/41/28 86/86/59 70/70/48 
f 43/43/14 42/42/29 71/71/49 82/120/52 
f 45/45/30 30/119/1 82/120/52 71/71/49 
f 46/46/18 45/45/30 68/106/46 85/116/56 
f 47/47/14 43/121/14 82/82/52 81/81/52 
f 38/38/22 50/50/22 87/117/56 85/85/56 
f 51/51/18 46/46/18 85/116/56 87/87/56 
f 31/31/23 52/52/16 88/118/55 72/127/50 
f 54/54/11 53/53/31 72/72/50 88/88/55 
f 53/53/31 56/56/32 84/115/57 67/105/45 
f 3/130/3 59/97/35 58/95/60 64/101/42 
f 31/128/23 72/109/50 66/103/44 65/102/43 
#end 62 faces

#ZOMPROPERTIES_04{
#ZOMPROPERTIES_04 table {Mesh table {SymPlane table {Point vector3d 0 0 0 Normal vector3d 1 0 0 Threshold double 0.01 
#ZOMPROPERTIES_04 Enabled bool false EdgeID int -1 SymEdgeID int -1 UPos double 0.5 LocalMode bool false } RootGroup C
#ZOMPROPERTIES_04 SubMeshGroup {Children table {Tile_0_0 CSubMeshGroup {Children table {} BBoxUV box3d 0 0 0 0 0 0 BBo
#ZOMPROPERTIES_04 x3D box3d 0 0 0 0 0 0 Area3D double 0 AreaUV double 0.753966 IsRoot bool false Properties table {Sel
#ZOMPROPERTIES_04 ected bool false Box box3d 0 1 0 1 0 1 U int 0 V int 0 NU int 0 NV int 0 Tiling vector3d 1 1 1 TileR
#ZOMPROPERTIES_04 atioMode string "1:1" Overflow string "Off" Pack table {BoxFrameEdit bool false Behavior string "Fre
#ZOMPROPERTIES_04 e" } } IsTile bool true PolyIDs ints { 8 42 22 43 17 58 27 59 1 31 18 30 10 47 23 46 2 33 19 39 6 32
#ZOMPROPERTIES_04  35 11 49 50 24 48 55 15 12 51 52 13 16 57 56 53 26 25 3 34 37 4 7 40 60 41 36 21 20 0 28 29 38 5 9 
#ZOMPROPERTIES_04 45 61 44 54 14 } } } BBoxUV box3d 0 0 0 0 0 0 BBox3D box3d 0 0 0 0 0 0 Area3D double 0 AreaUV double
#ZOMPROPERTIES_04  0 IsRoot bool true Properties table {Selected bool false Box box3d 0 1 0 1 0 1 U int 0 V int 0 NU i
#ZOMPROPERTIES_04 nt 1 NV int 1 Tiling vector3d 1 1 1 TileRatioMode string "1:1" Overflow string "Off" Pack table {Rot
#ZOMPROPERTIES_04 ate table {Mode int 0 Min double 0 Max double 90 Step double 0 } PaddingSize double 0.0078125 Margin
#ZOMPROPERTIES_04 Size double 0.00390625 Resolution int 256 MapResolution int 2048 Scaling table {TexelDensity double 
#ZOMPROPERTIES_04 1024 Mode int 2 } LayoutScalingMode int 2 MaxMutations int 1 } } IsTile bool false PolyIDs ints { } 
#ZOMPROPERTIES_04 } Maps table {Density table {PrimType string "Polygon" Size int 1 DefaultValue double 1 ScaleType st
#ZOMPROPERTIES_04 ring "Log" MergeMode string "Average" MinValue double 0.1 MaxValue double 4 Data doubles { r 62 1 } 
#ZOMPROPERTIES_04 } Pin table {PrimType string "Vertex" Size int 1 DefaultValue double 0 ScaleType string "Normalized"
#ZOMPROPERTIES_04  MergeMode string "Max" MinValue double 0 MaxValue double 1 Data doubles { r 130 0 } } Protect table
#ZOMPROPERTIES_04  {PrimType string "Vertex" Size int 1 DefaultValue double 0 ScaleType string "Normalized" MergeMode 
#ZOMPROPERTIES_04 string "Average" MinValue double -1 MaxValue double 1 Data doubles { r 130 0 } } } } }
#ZOMPROPERTIES_04}


#ZOMSCENE_01{
#ZOMSCENE_01 CScene {Settings table {AxisSystem table {UpVector string "y" } Unit string "cm" TexelDensityDisplay
#ZOMSCENE_01 Unit string "tx/cm" } }
#ZOMSCENE_01}

#begin 0 fatal error vertex (that RizomUV cannot handle)
#end 0 fatal error vertex (that RizomUV cannot handle)

#begin 0 error vertex
#end 0 error vertex
